<?xml version="1.0" encoding="UTF-8" standalone="no"?>
<svg
   xmlns:dc="http://purl.org/dc/elements/1.1/"
   xmlns:cc="http://creativecommons.org/ns#"
   xmlns:rdf="http://www.w3.org/1999/02/22-rdf-syntax-ns#"
   xmlns:svg="http://www.w3.org/2000/svg"
   xmlns="http://www.w3.org/2000/svg"
   viewBox="0 0 889.08002 622.54669"
   height="622.54669"
   width="889.08002"
   xml:space="preserve"
   id="svg2"
   version="1.1"><metadata
     id="metadata8"><rdf:RDF><cc:Work
         rdf:about=""><dc:format>image/svg+xml</dc:format><dc:type
           rdf:resource="http://purl.org/dc/dcmitype/StillImage" /></cc:Work></rdf:RDF></metadata><defs
     id="defs6" /><g
     transform="matrix(1.3333333,0,0,-1.3333333,0,622.54667)"
     id="g10"><g
       transform="scale(0.1)"
       id="g12"><path
         id="path14"
         style="fill:#211d1d;fill-opacity:1;fill-rule:nonzero;stroke:none"
         d="m 2821.94,585.602 h 391.6 V 737.41 h -391.6 v 183.16 h 443.41 v 156.64 H 2627.94 V 233.762 h 653.07 v 156.64 h -459.07 v 195.2" /><path
         id="path16"
         style="fill:#211d1d;fill-opacity:1;fill-rule:nonzero;stroke:none"
         d="m 3682.26,737.41 c 59.04,0 110.85,-27.711 145.79,-89.16 l 145.8,78.32 c -47,106.039 -154.23,165.071 -290.38,165.071 -210.87,0 -361.48,-138.559 -361.48,-333.762 0,-195.188 150.61,-333.77 361.48,-333.77 136.15,0 243.38,60.262 290.38,163.883 l -145.8,79.52 c -34.94,-62.653 -86.75,-89.16 -145.79,-89.16 -95.19,0 -169.9,66.269 -169.9,179.527 0,113.262 74.71,179.531 169.9,179.531" /><path
         id="path18"
         style="fill:#211d1d;fill-opacity:1;fill-rule:nonzero;stroke:none"
         d="m 4029.28,233.762 h 187.97 V 1127.81 H 4029.28 V 233.762" /><path
         id="path20"
         style="fill:#211d1d;fill-opacity:1;fill-rule:nonzero;stroke:none"
         d="m 4437.75,1182.03 c -69.88,0 -116.88,-45.79 -116.88,-104.82 0,-59.04 47,-104.831 116.88,-104.831 69.9,0 116.88,45.791 116.88,108.441 0,57.83 -46.98,101.21 -116.88,101.21" /><path
         id="path22"
         style="fill:#211d1d;fill-opacity:1;fill-rule:nonzero;stroke:none"
         d="m 4343.77,233.762 h 187.97 V 882 H 4343.77 V 233.762" /><path
         id="path24"
         style="fill:#211d1d;fill-opacity:1;fill-rule:nonzero;stroke:none"
         d="m 5008.88,378.352 c -93.97,0 -165.07,67.468 -165.07,179.527 0,112.062 71.1,179.531 165.07,179.531 93.99,0 165.08,-67.469 165.08,-179.531 0,-112.059 -71.09,-179.527 -165.08,-179.527 z m 32.54,513.289 c -86.76,0 -156.64,-27.711 -203.63,-84.34 V 882 H 4658.26 V 0 h 187.97 v 302.441 c 48.19,-53.011 114.46,-78.332 195.19,-78.332 181.94,0 322.91,130.141 322.91,333.77 0,203.641 -140.97,333.762 -322.91,333.762" /><path
         id="path26"
         style="fill:#211d1d;fill-opacity:1;fill-rule:nonzero;stroke:none"
         d="m 5574,689.219 c 0,33.742 36.14,60.25 120.49,60.25 59.04,0 122.91,-12.059 186.76,-48.199 l 62.65,133.75 c -61.44,36.14 -160.24,56.621 -249.41,56.621 -189.17,0 -300.03,-86.75 -300.03,-209.649 0,-259.062 391.61,-150.613 391.61,-256.652 0,-36.149 -32.54,-59.039 -119.3,-59.039 -79.53,0 -167.48,25.301 -225.31,62.66 l -62.67,-134.949 c 60.26,-39.77 171.11,-69.903 280.76,-69.903 193.99,0 306.05,85.563 306.05,206.051 0,255.449 -391.6,148.211 -391.6,259.059" /><path
         id="path28"
         style="fill:#211d1d;fill-opacity:1;fill-rule:nonzero;stroke:none"
         d="m 6171.66,614.512 c 13.24,83.148 74.69,134.957 160.24,134.957 84.35,0 145.8,-53.02 159.05,-134.957 z m 496.42,-59.043 c 0,208.461 -147,336.172 -337.38,336.172 -197.61,0 -345.82,-139.762 -345.82,-333.762 0,-192.777 145.8,-333.77 369.92,-333.77 116.87,0 207.25,36.153 267.49,104.84 l -100.01,108.43 c -44.58,-42.16 -93.98,-62.637 -162.67,-62.637 -98.8,0 -167.48,49.387 -185.55,130.117 h 490.4 c 1.21,15.68 3.62,36.161 3.62,50.61" /><path
         id="path30"
         style="fill:#211d1d;fill-opacity:1;fill-rule:nonzero;stroke:none"
         d="m 1990.16,3105.17 c 0,511.85 287.88,957.44 709.9,1184.3 l -0.08,137.54 c -491.88,-236.94 -832.45,-740.18 -832.45,-1321.84 0,-536.24 289.42,-1006.13 720.25,-1261.89 -69.02,84.01 -126.08,177.8 -168.61,278.58 -263.74,245.53 -429.01,595.48 -429.01,983.31" /><path
         id="path32"
         style="fill:#211d1d;fill-opacity:1;fill-rule:nonzero;stroke:none"
         d="m 4395.03,2093.84 c 251.2,263.25 405.51,619.72 405.51,1011.33 0,366.09 -134.82,701.23 -357.42,958.42 8.91,-43.57 13.72,-88.57 13.72,-134.73 0,-26.73 -1.59,-53.14 -4.61,-79.11 142.49,-213.26 225.69,-469.37 225.69,-744.58 0,-348.29 -133.06,-665.91 -351.36,-904.85 l 68.47,-106.48" /><path
         id="path34"
         style="fill:#d71e25;fill-opacity:1;fill-rule:nonzero;stroke:none"
         d="m 3919.59,3368.16 c 231.8,81.74 399.29,324.25 399.29,601.58 0,17.19 -0.88,34.17 -2.15,51.04 -5.83,77.18 -24.6,150.78 -54.47,218.81 -74.09,168.73 -215.47,303.37 -391.52,374.39 -10.96,4.41 -22.04,8.59 -33.26,12.5 -78.95,27.59 -164.14,42.66 -252.84,42.66 h -704.75 l 0.27,-430.08 h 137.94 169.14 405.45 c 9.7,0 19.33,-0.56 28.87,-1.57 41.53,-4.42 81.25,-18.26 116.35,-39.49 78.3,-47.37 133.46,-131.6 133.46,-230.94 0,-105.63 -61.73,-194.88 -148.04,-240.13 -39.57,-20.75 -84.31,-32.27 -130.64,-31.84 l -388.65,0.51 30.78,-45.72 233.89,-347.41 51.31,-76.22 370.48,-550.31 h 110.45 298.85 114.4 l -494.61,692.22" /><path
         id="path36"
         style="fill:#a11b21;fill-opacity:1;fill-rule:nonzero;stroke:none"
         d="M 354.242,624.148 H 195.199 V 918.16 h 159.043 c 119.289,0 179.531,-54.23 179.531,-147.012 0,-91.566 -60.242,-147 -179.531,-147 z m 377.141,147 c 0,189.184 -140.977,306.062 -366.289,306.062 H 0 V 233.762 h 195.199 v 234.949 h 169.895 9.629 L 537.398,233.762 H 747.047 L 557.875,504.859 c 109.648,47 173.508,139.782 173.508,266.289" /><path
         id="path38"
         style="fill:#a11b21;fill-opacity:1;fill-rule:nonzero;stroke:none"
         d="m 962.73,614.512 c 13.262,83.148 74.71,134.957 160.26,134.957 84.34,0 145.79,-53.02 159.05,-134.957 z m 159.05,277.129 c -197.608,0 -345.807,-139.762 -345.807,-333.762 0,-192.777 145.789,-333.77 369.907,-333.77 116.88,0 207.25,36.153 267.49,104.84 l -100.01,108.43 c -44.58,-42.16 -93.98,-62.637 -162.66,-62.637 -98.81,0 -167.485,49.387 -185.559,130.117 h 490.399 c 1.21,15.68 3.63,36.161 3.63,50.61 0,208.461 -147.01,336.172 -337.39,336.172" /><path
         id="path40"
         style="fill:#a11b21;fill-opacity:1;fill-rule:nonzero;stroke:none"
         d="m 1847.16,378.352 c -93.99,0 -166.29,67.468 -166.29,179.527 0,112.062 72.3,179.531 166.29,179.531 92.78,0 165.07,-67.469 165.07,-179.531 0,-112.059 -72.29,-179.527 -165.07,-179.527 z m 161.46,434.98 c -47,53.008 -114.47,78.309 -194,78.309 -183.14,0 -324.12,-130.121 -324.12,-333.762 0,-203.629 140.98,-333.77 324.12,-333.77 86.76,0 155.44,27.731 202.43,84.352 v -74.699 h 179.54 V 1127.81 H 2008.62 V 813.332" /><path
         id="path42"
         style="fill:#a11b21;fill-opacity:1;fill-rule:nonzero;stroke:none"
         d="m 4038.59,2184.02 c -143.35,-140.67 -314.84,-246.52 -513.15,-246.52 -244.72,0 -494.31,160.15 -610.04,397.23 h 1050.82 l -273.69,430.08 h -826.99 c 26.18,113.66 81.98,216.89 157.09,302.04 91.34,103.55 211.11,180.3 341.02,216.11 l -229.47,340.84 -25.43,37.77 c -149.59,-63.1 -283.86,-158.23 -393.82,-276.29 -188.5,-202.37 -305.56,-472.03 -305.56,-763.13 0,-245.32 82.77,-475.3 222.5,-662.29 72.86,-97.5 161.24,-183.27 261.44,-253.45 183.07,-128.23 405.63,-204.36 645.52,-204.36 283.41,0 495.31,106.76 670.64,258.24 26.91,23.27 53.01,47.55 78.33,72.7 l -249.21,351.03" /></g></g></svg>